<?xml version="1.0"?>
<svg xmlns="http://www.w3.org/2000/svg" viewBox="0 -40 512 511" width="512px" height="512px" class=""><g><path d="m133.351562 20.5c2.628907 0 5.207032-1.070312 7.070313-2.929688 1.859375-1.859374 2.929687-4.441406 2.929687-7.070312s-1.070312-5.210938-2.929687-7.070312c-1.863281-1.859376-4.441406-2.929688-7.070313-2.929688-2.632812 0-5.210937 1.070312-7.070312 2.929688-1.859375 1.859374-2.929688 4.441406-2.929688 7.070312s1.070313 5.210938 2.929688 7.070312c1.859375 1.859376 4.4375 2.929688 7.070312 2.929688zm0 0" data-original="#000000" class="active-path" fill="#000000"/><path d="m337.75 412.4375h-279.75c-20.953125 0-38-17.046875-38-38v-315.9375c0-20.953125 17.046875-38 38-38h31c5.523438 0 10-4.476562 10-10s-4.476562-10-10-10h-31c-31.980469 0-58 26.019531-58 58v315.9375c0 31.980469 26.019531 58 58 58h279.75c5.523438 0 10-4.476562 10-10s-4.476562-10-10-10zm0 0" data-original="#000000" class="active-path" fill="#000000"/><path d="m377.941406 412.441406c-2.640625 0-5.210937 1.070313-7.070312 2.929688-1.871094 1.859375-2.929688 4.4375-2.929688 7.070312 0 2.628906 1.058594 5.207032 2.929688 7.070313 1.859375 1.859375 4.429687 2.929687 7.070312 2.929687 2.628906 0 5.207032-1.070312 7.070313-2.929687 1.859375-1.871094 2.929687-4.441407 2.929687-7.070313 0-2.632812-1.070312-5.210937-2.929687-7.070312-1.863281-1.859375-4.441407-2.929688-7.070313-2.929688zm0 0" data-original="#000000" class="active-path" fill="#000000"/><path d="m454 .5h-280.5c-5.523438 0-10 4.476562-10 10s4.476562 10 10 10h280.5c20.953125 0 38 17.046875 38 38v315.9375c0 20.953125-17.046875 38-38 38h-37.667969c-5.523437 0-10 4.476562-10 10s4.476563 10 10 10h37.667969c31.980469 0 58-26.019531 58-58v-315.9375c0-31.980469-26.019531-58-58-58zm0 0" data-original="#000000" class="active-path" fill="#000000"/><path d="m276.0625 68.5h12c5.523438 0 10-4.476562 10-10s-4.476562-10-10-10h-12c-5.523438 0-10 4.476562-10 10s4.476562 10 10 10zm0 0" data-original="#000000" class="active-path" fill="#000000"/><path d="m226.0625 68.5c5.523438 0 10-4.476562 10-10s-4.476562-10-10-10h-12c-5.523438 0-10 4.476562-10 10s4.476562 10 10 10zm0 0" data-original="#000000" class="active-path" fill="#000000"/><path d="m132 364.4375c-5.523438 0-10 4.476562-10 10s4.476562 10 10 10h12c5.523438 0 10-4.476562 10-10s-4.476562-10-10-10zm0 0" data-original="#000000" class="active-path" fill="#000000"/><path d="m48 150.4375c0 5.523438 4.476562 10 10 10s10-4.476562 10-10v-12c0-5.523438-4.476562-10-10-10s-10 4.476562-10 10zm0 0" data-original="#000000" class="active-path" fill="#000000"/><path d="m80.0625 58.5c0 5.523438 4.476562 10 10 10h12c5.523438 0 10-4.476562 10-10s-4.476562-10-10-10h-12c-5.523438 0-10 4.476562-10 10zm0 0" data-original="#000000" class="active-path" fill="#000000"/><path d="m58 98.4375c5.523438 0 10-4.476562 10-10v-12c0-5.523438-4.476562-10-10-10s-10 4.476562-10 10v12c0 5.523438 4.476562 10 10 10zm0 0" data-original="#000000" class="active-path" fill="#000000"/><path d="m48 274.4375c0 5.523438 4.476562 10 10 10s10-4.476562 10-10v-12c0-5.523438-4.476562-10-10-10s-10 4.476562-10 10zm0 0" data-original="#000000" class="active-path" fill="#000000"/><path d="m48 336.4375c0 5.523438 4.476562 10 10 10s10-4.476562 10-10v-12c0-5.523438-4.476562-10-10-10s-10 4.476562-10 10zm0 0" data-original="#000000" class="active-path" fill="#000000"/><path d="m48 212.4375c0 5.523438 4.476562 10 10 10s10-4.476562 10-10v-12c0-5.523438-4.476562-10-10-10s-10 4.476562-10 10zm0 0" data-original="#000000" class="active-path" fill="#000000"/><path d="m70 384.4375h12c5.523438 0 10-4.476562 10-10s-4.476562-10-10-10h-12c-5.523438 0-10 4.476562-10 10s4.476562 10 10 10zm0 0" data-original="#000000" class="active-path" fill="#000000"/><path d="m318 384.4375h12c5.523438 0 10-4.476562 10-10s-4.476562-10-10-10h-12c-5.523438 0-10 4.476562-10 10s4.476562 10 10 10zm0 0" data-original="#000000" class="active-path" fill="#000000"/><path d="m444 140.5625c0 5.523438 4.476562 10 10 10s10-4.476562 10-10v-12c0-5.523438-4.476562-10-10-10s-10 4.476562-10 10zm0 0" data-original="#000000" class="active-path" fill="#000000"/><path d="m392 364.4375h-12c-5.523438 0-10 4.476562-10 10s4.476562 10 10 10h12c5.523438 0 10-4.476562 10-10s-4.476562-10-10-10zm0 0" data-original="#000000" class="active-path" fill="#000000"/><path d="m152.0625 68.5h12c5.523438 0 10-4.476562 10-10s-4.476562-10-10-10h-12c-5.523438 0-10 4.476562-10 10s4.476562 10 10 10zm0 0" data-original="#000000" class="active-path" fill="#000000"/><path d="m454 88.5625c5.523438 0 10-4.476562 10-10v-12c0-5.523438-4.476562-10-10-10s-10 4.476562-10 10v12c0 5.523438 4.476562 10 10 10zm0 0" data-original="#000000" class="active-path" fill="#000000"/><path d="m444 264.5625c0 5.523438 4.476562 10 10 10s10-4.476562 10-10v-12c0-5.523438-4.476562-10-10-10s-10 4.476562-10 10zm0 0" data-original="#000000" class="active-path" fill="#000000"/><path d="m432 374.4375c0 5.523438 4.476562 10 10 10h12c5.523438 0 10-4.476562 10-10s-4.476562-10-10-10h-12c-5.523438 0-10 4.476562-10 10zm0 0" data-original="#000000" class="active-path" fill="#000000"/><path d="m444 326.5625c0 5.523438 4.476562 10 10 10s10-4.476562 10-10v-12c0-5.523438-4.476562-10-10-10s-10 4.476562-10 10zm0 0" data-original="#000000" class="active-path" fill="#000000"/><path d="m444 202.5625c0 5.523438 4.476562 10 10 10s10-4.476562 10-10v-12c0-5.523438-4.476562-10-10-10s-10 4.476562-10 10zm0 0" data-original="#000000" class="active-path" fill="#000000"/><path d="m412.0625 68.5c5.523438 0 10-4.476562 10-10s-4.476562-10-10-10h-12c-5.523438 0-10 4.476562-10 10s4.476562 10 10 10zm0 0" data-original="#000000" class="active-path" fill="#000000"/><path d="m194 364.4375c-5.523438 0-10 4.476562-10 10s4.476562 10 10 10h12c5.523438 0 10-4.476562 10-10s-4.476562-10-10-10zm0 0" data-original="#000000" class="active-path" fill="#000000"/><path d="m246 374.4375c0 5.523438 4.476562 10 10 10h12c5.523438 0 10-4.476562 10-10s-4.476562-10-10-10h-12c-5.523438 0-10 4.476562-10 10zm0 0" data-original="#000000" class="active-path" fill="#000000"/><path d="m360.0625 58.5c0-5.523438-4.476562-10-10-10h-12c-5.523438 0-10 4.476562-10 10s4.476562 10 10 10h12c5.523438 0 10-4.476562 10-10zm0 0" data-original="#000000" class="active-path" fill="#000000"/><path d="m99.753906 108.5v80c0 5.523438 4.476563 10 10 10 5.523438 0 10-4.476562 10-10v-30h27.191406v30c0 5.523438 4.476563 10 10 10 5.523438 0 10-4.476562 10-10v-80c0-5.523438-4.476562-10-10-10-5.523437 0-10 4.476562-10 10v30h-27.191406v-30c0-5.523438-4.476562-10-10-10-5.523437 0-10 4.476562-10 10zm0 0" data-original="#000000" class="active-path" fill="#000000"/><path d="m264.074219 188.5c0 5.523438 4.476562 10 10 10 5.523437 0 10-4.476562 10-10v-43.367188l28.578125 48.449219c1.832031 3.101563 5.136718 4.917969 8.613281 4.917969.875 0 1.757813-.113281 2.632813-.351562 4.351562-1.1875 7.367187-5.140626 7.367187-9.648438v-80c0-5.523438-4.476563-10-10-10s-10 4.476562-10 10v43.367188l-28.578125-48.449219c-2.289062-3.882813-6.898438-5.753907-11.246094-4.566407-4.351562 1.1875-7.367187 5.140626-7.367187 9.648438zm0 0" data-original="#000000" class="active-path" fill="#000000"/><path d="m190.800781 198.09375c5.296875 1.5625 10.859375-1.464844 12.421875-6.765625l3.988282-13.523437h20.03125l3.988281 13.523437c1.285156 4.355469 5.269531 7.175781 9.585937 7.175781.9375 0 1.890625-.132812 2.835938-.410156 5.296875-1.5625 8.324218-7.125 6.761718-12.421875l-23.597656-80c-1.253906-4.25-5.15625-7.171875-9.589844-7.171875-4.433593 0-8.335937 2.921875-9.589843 7.171875l-23.597657 80c-1.5625 5.296875 1.464844 10.859375 6.761719 12.421875zm30.542969-40.289062h-8.234375l4.117187-13.957032zm0 0" data-original="#000000" class="active-path" fill="#000000"/><path d="m360.214844 98.5c-5.523438 0-10 4.476562-10 10v80c0 5.523438 4.476562 10 10 10h2.03125c27.570312 0 50-22.429688 50-50s-22.429688-50-50-50zm10 21.074219c12.6875 3.5 22.03125 15.140625 22.03125 28.925781s-9.34375 25.425781-22.03125 28.925781zm0 0" data-original="#000000" class="active-path" fill="#000000"/><path d="m166.945312 324.5v-80c0-4.035156-2.421874-7.675781-6.148437-9.230469-3.722656-1.554687-8.015625-.714843-10.882813 2.121094l-16.5625 16.394531-16.5625-16.394531c-2.867187-2.835937-7.160156-3.675781-10.886718-2.121094-3.722656 1.554688-6.148438 5.195313-6.148438 9.230469v80c0 5.523438 4.476563 10 10 10 5.523438 0 10-4.476562 10-10v-56.03125l6.5625 6.496094c3.898438 3.855468 10.171875 3.855468 14.070313 0l6.5625-6.496094v56.03125c0 5.523438 4.476562 10 10 10 5.523437 0 9.996093-4.476562 9.996093-10zm0 0" data-original="#000000" class="active-path" fill="#000000"/><path d="m395.660156 254.5c5.523438 0 10-4.476562 10-10s-4.476562-10-10-10h-35.445312c-5.523438 0-10 4.476562-10 10v80c0 5.523438 4.476562 10 10 10h35.445312c5.523438 0 10-4.476562 10-10s-4.476562-10-10-10h-25.445312v-20h25.445312c5.523438 0 10-4.476562 10-10s-4.476562-10-10-10h-25.445312v-20zm0 0" data-original="#000000" class="active-path" fill="#000000"/><path d="m190.800781 334.09375c5.296875 1.5625 10.859375-1.46875 12.421875-6.765625l3.988282-13.523437h20.03125l3.988281 13.523437c1.285156 4.355469 5.269531 7.175781 9.585937 7.175781.9375 0 1.890625-.132812 2.835938-.410156 5.296875-1.566406 8.324218-7.125 6.761718-12.421875l-23.597656-80c-1.253906-4.253906-5.15625-7.171875-9.589844-7.171875-4.433593 0-8.335937 2.917969-9.589843 7.171875l-23.597657 80c-1.5625 5.296875 1.464844 10.859375 6.761719 12.421875zm30.542969-40.289062h-8.234375l4.117187-13.957032zm0 0" data-original="#000000" class="active-path" fill="#000000"/><path d="m328.6875 284.5c0-27.570312-22.429688-50-50-50h-2.03125c-5.523438 0-10 4.476562-10 10v80c0 5.523438 4.476562 10 10 10h2.03125c27.570312 0 50-22.429688 50-50zm-42.03125 28.925781v-57.851562c12.6875 3.5 22.03125 15.140625 22.03125 28.925781s-9.347656 25.425781-22.03125 28.925781zm0 0" data-original="#000000" class="active-path" fill="#000000"/></g> </svg>
